<svg height="1000" viewBox="0 0 633.333 633.333" width="1000" xmlns="http://www.w3.org/2000/svg"><path d="m632.5 296.667c-10-165-147.5-296.667-315.833-296.667-168.334 0-305.834 131.667-315.834 296.667 0 6.666.834 13.333 1.667 20 6.667 55 27.5 105.833 59.167 148.333 57.5 78.333 150 129.167 255 129.167-146.667 0-266.667-114.167-276.667-257.5-.833-6.667-.833-13.334-.833-20 0-6.667 0-13.334.833-20 10-143.334 130-257.5 276.667-257.5 105 0 197.5 50.833 255 129.166 31.666 42.5 52.5 93.334 59.166 148.334.834 6.666 1.667 13.333 1.667 19.166 0-6.666.833-13.333.833-20 0-5.833 0-12.5-.833-19.166" fill="#89d329"/><path d="m.833 336.667c10 165 147.5 296.666 315.834 296.666 168.333 0 305.833-131.666 315.833-296.666 0-6.667-.833-13.334-1.667-20-6.666-55-27.5-105.834-59.166-148.334-57.5-78.333-150-129.166-255-129.166 146.666 0 266.666 114.166 276.666 257.5.834 6.666.834 13.333.834 20 0 6.666 0 13.333-.834 20-10 144.166-130 257.5-276.666 257.5-105 0-197.5-50.834-255-129.167-31.667-42.5-52.5-93.333-59.167-148.333-.833-6.667-1.667-13.334-1.667-19.167 0 6.667-.833 13.333-.833 20 0 5.833 0 12.5.833 19.167" fill="#00bcff"/><path d="m277.499 60.833v87.5h60.833c15 0 26.666-11.667 26.666-26.668 0-7.5-3.333-14.166-8.333-19.166 3.333-4.168 5.833-10 6.666-15.833 0-14.167-11.666-25.834-25.833-25.834zm19.999 18.333h36.667a7.47 7.47 0 0 1 7.5 7.5 7.47 7.47 0 0 1 -7.5 7.5h-36.667zm0 33.332h37.5c5 0 8.333 3.334 8.333 8.335 0 5-3.333 8.333-8.333 8.333h-37.5zm9.167 52.5-43.333 87.5h22.5l6.666-15h49.168l6.665 15h22.5l-44.166-87.5zm10 22.501 15 31.667h-30zm30.002 84.168h25l-44.167 56.666v30.834h-20.833v-30.834l-44.167-56.666h25l30 40zm143.33-.002v87.5h20.833v-33.333h15.833l25.001 33.333h24.999l-25.833-34.167c10.834-3.333 19.167-13.333 19.167-25.832 0-15-11.667-27.5-26.666-27.5zm21.667 18.334h30c4.167 0 8.334 4.166 8.334 8.333s-3.334 8.333-8.334 8.333h-30zm-447.497-18.333v87.5h60.833c15 0 26.667-11.666 26.667-26.666 0-7.5-3.334-14.167-8.334-19.167 3.334-4.167 5.833-10 6.666-15.833 0-14.167-11.666-25.834-25.833-25.834zm20 18.334h36.666a7.47 7.47 0 0 1 7.5 7.5 7.47 7.47 0 0 1 -7.5 7.5h-36.667zm0 33.333h37.5c5 0 8.333 3.333 8.333 8.333s-3.334 8.334-8.334 8.334h-37.5zm123.333-51.666-43.333 87.5h22.5l6.667-15h49.166l6.666 15h22.5l-44.167-87.5zm10 22.5 15 31.667h-30zm245-22.5v18.808h-58.333v14.72h56.666v18.808h-56.666v16.355h58.333v18.809h-79.167v-87.5zm-185.834 215v87.5h20.834v-33.332h15.833l25 33.332h25l-25.833-34.166c10.833-3.334 19.167-13.333 19.167-25.833 0-15-11.667-27.5-26.667-27.5zm21.667 18.333h30c4.168 0 8.334 4.167 8.334 8.334s-3.333 8.334-8.333 8.334h-30zm58.334-126.861v18.808h-58.334v14.72h56.667v18.808h-56.667v16.355h58.334v18.809h-79.167v-87.5z" fill="#10384f"/></svg>
